<svg width="191" height="67" viewBox="0 0 191 67" fill="none" xmlns="http://www.w3.org/2000/svg">
<g clip-path="url(#clip0_206_91)">
<path d="M60.619 0H6.38095C2.85685 0 0 2.85685 0 6.38095V60.619C0 64.1432 2.85685 67 6.38095 67H60.619C64.1432 67 67 64.1432 67 60.619V6.38095C67 2.85685 64.1432 0 60.619 0Z" fill="#5644FC"/>
<path d="M60.0943 17.0076H58.2258C58.3409 15.9172 58.3984 14.9537 58.3984 14.1172C58.3984 10.9841 57.5968 8.69677 55.9936 7.25717C54.3904 5.81758 52.4124 5.09871 50.0595 5.09871C46.8067 5.09871 43.5428 6.20595 40.2659 8.42043C36.989 10.6349 34.3077 13.7251 32.2202 17.691C30.1327 21.6569 29.0881 25.7964 29.0881 30.1096C29.0881 34.4228 30.1198 37.7165 32.185 39.7797C34.2502 41.843 36.5622 42.8755 39.1229 42.8755C40.6463 42.8755 42.1048 42.672 43.5001 42.2668C44.8955 41.8616 46.2278 41.2623 47.497 40.4743C48.5584 36.8296 49.0891 34.4041 49.0891 33.1961C49.0891 32.6154 48.8757 32.1579 48.4489 31.8199C48.0221 31.4839 47.2669 31.3158 46.1833 31.3158C45.814 31.3158 44.9252 31.3737 43.5187 31.4895L43.8304 29.7828C44.8454 29.598 45.8715 29.5046 46.9106 29.5046C47.7419 29.5046 48.7681 29.527 49.9909 29.5737C50.9372 29.598 51.6405 29.6092 52.1025 29.6092C52.9338 29.6092 54.2011 29.5401 55.9082 29.4001C56.8082 29.331 57.5801 29.2843 58.2258 29.26L57.8454 31.0357C56.6783 31.0133 55.8507 31.2617 55.3608 31.7845C54.871 32.3073 54.357 33.6703 53.8207 35.8755C51.9225 43.7923 50.0521 49.5189 48.2114 53.0591C46.3707 56.5993 44.2758 59.1405 41.9285 60.6847C39.5812 62.2289 37.0484 63 34.3319 63C32.031 63 30.1717 62.4716 28.7559 61.4148C27.3401 60.3579 26.6332 59.2507 26.6332 58.0893C26.6332 57.4619 26.8577 56.9279 27.3086 56.4873C27.7576 56.0466 28.2716 55.8263 28.8487 55.8263C29.6317 55.8263 30.5206 56.3827 31.5133 57.4974C32.6433 58.7503 33.5266 59.5625 34.1611 59.9341C34.7957 60.3057 35.4693 60.4905 36.1856 60.4905C37.6385 60.4905 38.9188 59.921 40.0265 58.7839C42.2866 56.5321 44.5133 51.3208 46.7047 43.15C45.1813 43.9865 43.6356 44.6176 42.0677 45.0471C40.4979 45.4765 38.8947 45.6912 37.2581 45.6912C33.1981 45.6912 30.0029 44.612 27.6723 42.4554C24.5587 39.5799 23 35.5674 23 30.4177C23 25.7329 24.182 21.3245 26.5478 17.1962C28.9118 13.0678 32.1998 9.66957 36.4101 7.00137C40.6203 4.33504 44.6172 3 48.4007 3C50.4529 3 52.8651 3.32489 55.6336 3.97467C58.4244 4.60204 60.5471 4.92693 62 4.94934C60.7308 9.35962 60.0962 13.3759 60.0962 16.9964L60.0943 17.0076Z" fill="white"/>
</g>
<path d="M99.672 30.48C99.368 29.92 98.928 29.496 98.352 29.208C97.792 28.904 97.128 28.752 96.36 28.752C95.032 28.752 93.968 29.192 93.168 30.072C92.368 30.936 91.968 32.096 91.968 33.552C91.968 35.104 92.384 36.32 93.216 37.2C94.064 38.064 95.224 38.496 96.696 38.496C97.704 38.496 98.552 38.24 99.24 37.728C99.944 37.216 100.456 36.48 100.776 35.52H95.568V32.496H104.496V36.312C104.192 37.336 103.672 38.288 102.936 39.168C102.216 40.048 101.296 40.76 100.176 41.304C99.056 41.848 97.792 42.12 96.384 42.12C94.72 42.12 93.232 41.76 91.92 41.04C90.624 40.304 89.608 39.288 88.872 37.992C88.152 36.696 87.792 35.216 87.792 33.552C87.792 31.888 88.152 30.408 88.872 29.112C89.608 27.8 90.624 26.784 91.92 26.064C93.216 25.328 94.696 24.96 96.36 24.96C98.376 24.96 100.072 25.448 101.448 26.424C102.84 27.4 103.76 28.752 104.208 30.48H99.672ZM110.873 24.24V42H106.769V24.24H110.873ZM119.943 42.192C118.631 42.192 117.447 41.912 116.391 41.352C115.351 40.792 114.527 39.992 113.919 38.952C113.327 37.912 113.031 36.696 113.031 35.304C113.031 33.928 113.335 32.72 113.943 31.68C114.551 30.624 115.383 29.816 116.439 29.256C117.495 28.696 118.679 28.416 119.991 28.416C121.303 28.416 122.487 28.696 123.543 29.256C124.599 29.816 125.431 30.624 126.039 31.68C126.647 32.72 126.951 33.928 126.951 35.304C126.951 36.68 126.639 37.896 126.015 38.952C125.407 39.992 124.567 40.792 123.495 41.352C122.439 41.912 121.255 42.192 119.943 42.192ZM119.943 38.64C120.727 38.64 121.391 38.352 121.935 37.776C122.495 37.2 122.775 36.376 122.775 35.304C122.775 34.232 122.503 33.408 121.959 32.832C121.431 32.256 120.775 31.968 119.991 31.968C119.191 31.968 118.527 32.256 117.999 32.832C117.471 33.392 117.207 34.216 117.207 35.304C117.207 36.376 117.463 37.2 117.975 37.776C118.503 38.352 119.159 38.64 119.943 38.64ZM133.233 30.504C133.617 29.88 134.169 29.376 134.889 28.992C135.609 28.608 136.433 28.416 137.361 28.416C138.465 28.416 139.465 28.696 140.361 29.256C141.257 29.816 141.961 30.616 142.473 31.656C143.001 32.696 143.265 33.904 143.265 35.28C143.265 36.656 143.001 37.872 142.473 38.928C141.961 39.968 141.257 40.776 140.361 41.352C139.465 41.912 138.465 42.192 137.361 42.192C136.417 42.192 135.593 42.008 134.889 41.64C134.185 41.256 133.633 40.752 133.233 40.128V42H129.129V24.24H133.233V30.504ZM139.089 35.28C139.089 34.256 138.801 33.456 138.225 32.88C137.665 32.288 136.969 31.992 136.137 31.992C135.321 31.992 134.625 32.288 134.049 32.88C133.489 33.472 133.209 34.28 133.209 35.304C133.209 36.328 133.489 37.136 134.049 37.728C134.625 38.32 135.321 38.616 136.137 38.616C136.953 38.616 137.649 38.32 138.225 37.728C138.801 37.12 139.089 36.304 139.089 35.28ZM144.602 35.28C144.602 33.904 144.858 32.696 145.37 31.656C145.898 30.616 146.61 29.816 147.506 29.256C148.402 28.696 149.402 28.416 150.506 28.416C151.45 28.416 152.274 28.608 152.978 28.992C153.698 29.376 154.25 29.88 154.634 30.504V28.608H158.738V42H154.634V40.104C154.234 40.728 153.674 41.232 152.954 41.616C152.25 42 151.426 42.192 150.482 42.192C149.394 42.192 148.402 41.912 147.506 41.352C146.61 40.776 145.898 39.968 145.37 38.928C144.858 37.872 144.602 36.656 144.602 35.28ZM154.634 35.304C154.634 34.28 154.346 33.472 153.77 32.88C153.21 32.288 152.522 31.992 151.706 31.992C150.89 31.992 150.194 32.288 149.618 32.88C149.058 33.456 148.778 34.256 148.778 35.28C148.778 36.304 149.058 37.12 149.618 37.728C150.194 38.32 150.89 38.616 151.706 38.616C152.522 38.616 153.21 38.32 153.77 37.728C154.346 37.136 154.634 36.328 154.634 35.304ZM165.811 24.24V42H161.707V24.24H165.811ZM170.849 27.216C170.129 27.216 169.537 27.008 169.073 26.592C168.625 26.16 168.401 25.632 168.401 25.008C168.401 24.368 168.625 23.84 169.073 23.424C169.537 22.992 170.129 22.776 170.849 22.776C171.553 22.776 172.129 22.992 172.577 23.424C173.041 23.84 173.273 24.368 173.273 25.008C173.273 25.632 173.041 26.16 172.577 26.592C172.129 27.008 171.553 27.216 170.849 27.216ZM172.889 28.608V42H168.785V28.608H172.889ZM175.047 35.28C175.047 33.904 175.303 32.696 175.815 31.656C176.343 30.616 177.055 29.816 177.951 29.256C178.847 28.696 179.847 28.416 180.951 28.416C181.895 28.416 182.719 28.608 183.423 28.992C184.143 29.376 184.695 29.88 185.079 30.504V28.608H189.183V42H185.079V40.104C184.679 40.728 184.119 41.232 183.399 41.616C182.695 42 181.871 42.192 180.927 42.192C179.839 42.192 178.847 41.912 177.951 41.352C177.055 40.776 176.343 39.968 175.815 38.928C175.303 37.872 175.047 36.656 175.047 35.28ZM185.079 35.304C185.079 34.28 184.791 33.472 184.215 32.88C183.655 32.288 182.967 31.992 182.151 31.992C181.335 31.992 180.639 32.288 180.063 32.88C179.503 33.456 179.223 34.256 179.223 35.28C179.223 36.304 179.503 37.12 180.063 37.728C180.639 38.32 181.335 38.616 182.151 38.616C182.967 38.616 183.655 38.32 184.215 37.728C184.791 37.136 185.079 36.328 185.079 35.304Z" fill="#15133D"/>
<defs>
<clipPath id="clip0_206_91">
<rect width="67" height="67" fill="white"/>
</clipPath>
</defs>
</svg>
