<svg width="245" height="184" viewBox="0 0 245 184" fill="none" xmlns="http://www.w3.org/2000/svg">
<g clip-path="url(#clip0_24_118)">
<path d="M179.134 32.148C166.798 21.1938 157.737 27.7271 150.989 35.0299C145.612 40.8514 144.86 42.1397 140.416 48.1715C139.757 49.0678 139.248 50.0621 139.228 51.1716C139.104 57.8376 135.681 86.0286 139.485 95.7552C143.92 107.093 198.606 112.28 198.606 112.28L179.134 32.148Z" fill="#15133D"/>
<path d="M144.111 102.211C144.409 102.211 144.658 101.977 144.675 101.678C144.689 101.369 144.452 101.104 144.14 101.09C142.518 101.009 141.197 100.28 140.101 98.8677C133.969 90.9481 137.418 64.5121 140.422 50.137C140.486 49.8344 140.289 49.5347 139.986 49.4713C139.682 49.4079 139.381 49.601 139.318 49.9065C138.661 53.0449 136.467 64.1893 135.785 75.7949C135.082 87.7146 136.233 95.7091 139.211 99.5536C140.5 101.219 142.139 102.116 144.085 102.214C144.094 102.214 144.105 102.214 144.114 102.214L144.111 102.211Z" fill="#15133D"/>
<path d="M174.506 28.8799C198.219 41.9466 183.76 86.1468 213.834 101.902C222.166 106.268 247.764 128.422 230.99 157.63C220.018 176.738 187.229 172.619 176.434 155.708C165.639 138.797 174.506 28.877 174.506 28.877V28.8799Z" fill="#15133D"/>
<path d="M237.61 129.37C237.636 129.37 237.659 129.37 237.685 129.364C237.995 129.324 238.212 129.042 238.168 128.733C238.148 128.578 237.631 124.857 235.266 119.926C233.086 115.381 228.856 108.928 221.076 103.992C207.161 95.1644 197.924 86.8471 187.004 45.8372C186.923 45.5374 186.614 45.3588 186.316 45.4395C186.015 45.5202 185.836 45.8256 185.917 46.1254C191.193 65.9415 196.426 79.3368 202.385 88.2823C207.916 96.5909 213.608 100.582 220.475 104.937C234.93 114.107 237.035 128.73 237.055 128.877C237.093 129.16 237.336 129.364 237.613 129.364L237.61 129.37Z" fill="#15133D"/>
<path d="M237.09 117.923C237.194 117.923 237.298 117.894 237.391 117.837C237.654 117.672 237.732 117.324 237.567 117.061C234.129 111.635 229.749 107.185 224.551 103.833C205.01 91.2363 201.775 83.994 185.636 42.5114C185.524 42.2232 185.197 42.0791 184.908 42.1915C184.619 42.3039 184.474 42.6296 184.587 42.9178C192.656 63.6562 197.479 75.8093 202.755 84.4234C208.421 93.6744 214.814 98.8907 223.941 104.776C229.001 108.038 233.268 112.372 236.616 117.661C236.723 117.831 236.905 117.923 237.093 117.923H237.09Z" fill="#15133D"/>
<path d="M175.327 56.4629C183.491 73.3654 182.234 88.7031 182.234 88.7031C182.234 88.7031 181.291 94.6514 177.524 95.9021C173.757 97.1529 168.417 93.3977 168.732 88.3889C169.047 83.3801 167.477 71.1751 165.592 66.7917C163.707 62.4083 175.327 56.4629 175.327 56.4629Z" fill="#F9D8C1"/>
<path d="M218.462 173.902C217.948 178.513 219.104 178.129 214.993 178.899C210.882 179.668 203.556 176.85 203.556 176.85L211.781 161.604L218.465 173.905L218.462 173.902Z" fill="#6791C9"/>
<path d="M181.251 79.625C183.564 87.118 200.913 81.3541 206.985 83.0833C213.056 84.8124 218.263 110.176 219.13 132.949C219.998 155.722 218.841 173.879 216.528 176.761C214.215 179.642 176.047 180.795 172.577 179.642C169.108 178.49 201.491 164.077 201.491 164.077C201.491 164.077 203.515 137.56 200.913 124.013C198.311 110.465 174.89 92.5937 174.89 92.5937L181.251 79.6221V79.625Z" fill="#F9D8C1"/>
<path d="M173.153 81.9305C167.081 91.1527 151.177 89.9999 145.684 97.4958C140.191 104.989 128.623 146.209 128.623 146.209L116.478 104.415C116.478 104.415 106.628 102.767 109.828 109.603C115.518 121.765 117.637 160.996 123.807 166.57C130.667 172.766 137.493 167.723 141.347 156.872C145.074 146.376 154.36 123.724 161.01 115.079C167.659 106.433 174.89 92.5965 174.89 92.5965L173.155 81.9334L173.153 81.9305Z" fill="#F9D8C1"/>
<path d="M199.465 83.0833C187.319 97.2077 163.609 96.6313 158.405 94.9021L153.201 93.1729C153.201 93.1729 149.153 91.732 145.684 95.7667C142.215 99.8014 133.827 125.168 132.382 130.932C130.936 136.696 128.623 146.209 128.623 146.209C128.623 146.209 134.828 153.63 134.828 161.126C134.828 168.622 132.194 168.685 132.194 168.685C132.194 168.685 139.902 166.962 141.636 162.351C143.371 157.74 158.986 115.943 158.986 115.943L202.07 116.808L201.491 164.08C201.491 164.08 205.25 160.622 210.454 164.08C215.658 167.538 217.393 175.611 216.525 176.763C215.658 177.916 218.26 177.916 218.26 177.052C218.26 176.187 223.175 155.146 219.706 120.557C216.236 85.9681 209.587 82.2216 205.825 81.9334C202.067 81.6452 199.465 83.0862 199.465 83.0862V83.0833Z" fill="#A3A1FF"/>
<path d="M133.958 168.086C133.876 168.112 133.827 168.115 133.827 168.115C133.827 168.115 133.873 168.106 133.958 168.086Z" fill="#6791C9"/>
<path d="M132.286 147.255C134.793 148.025 139.034 156.864 139.034 156.864C139.034 156.864 148.673 135.918 151.565 106.9L155.005 126.586C150.255 139.298 142.801 159.244 141.633 162.348C140.046 166.567 133.645 168.328 132.769 168.521C133.009 168.44 133.538 168.121 133.978 166.855C134.232 166.625 135.678 165.95 135.95 165.703C138.262 163.59 137.3 158.593 135.756 153.019C134.215 147.446 129.78 146.486 132.286 147.255Z" fill="#8683ED"/>
<path d="M199.994 116.764L204.773 94.9857C209.977 102.289 210.555 127.269 208.436 144.373C206.695 158.4 204.096 162.04 202.307 163.501C201.778 163.812 201.489 164.077 201.489 164.077L202.067 116.805L199.994 116.764Z" fill="#8683ED"/>
<path d="M213.834 94.7926C204.967 118.62 209.399 123.425 197.73 151.394C191.213 167.014 178.646 178.778 178.646 178.778C178.646 178.778 168.524 181.372 155.803 180.507C143.079 179.643 133.767 178.772 133.767 178.772C133.767 178.772 147.13 170.709 147.708 165.233C148.286 159.757 150.795 138.033 147.52 122.661C144.961 110.655 155.517 98.6515 155.517 98.6515L173.155 97.7869L213.837 94.7984L213.834 94.7926Z" fill="#A3A1FF"/>
<path opacity="0.5" d="M198.219 131.307C199.76 125.733 191.664 133.036 178.362 134.382C165.06 135.728 150.217 133.612 157.54 135.918C164.867 138.223 184.917 134.765 181.253 142.068C176.943 150.662 171.852 158.979 164.482 163.976C159.663 167.244 148.095 170.317 159.278 168.587C170.458 166.858 182.413 153.792 187.617 145.336C192.821 136.88 197.875 132.549 198.219 131.307Z" fill="#8683ED"/>
<path d="M168.764 86.1929C168.645 80.4406 167.24 70.6218 165.592 66.7888C164.242 63.6504 169.822 59.7079 173.098 57.7223L175.867 57.6041C176.289 58.5206 176.686 59.4313 177.053 60.3362C179.976 79.4665 171.227 87.3716 167.055 88.9625C165.254 89.6484 163.236 89.7262 161.51 89.5705C164.086 88.657 166.598 87.6195 168.767 86.1929H168.764Z" fill="#F5CAAC"/>
<path d="M146.849 63.9818C148.809 74.3078 153.34 82.6366 161.007 81.0659C168.674 79.4953 176.732 68.59 174.61 58.2986C172.488 48.0044 164.554 40.935 156.887 42.5028C149.22 44.0734 144.233 50.2263 146.846 63.9818H146.849Z" fill="#F9D8C1"/>
<path d="M119.566 114.972C119.566 114.972 133.735 152.924 134.409 156.864C135.082 160.803 133.735 163.302 133.348 163.302C132.96 163.302 120.913 142.739 120.913 142.739L119.563 114.972H119.566Z" fill="#F5CAAC"/>
<path d="M118.987 113.306C117.831 109.462 119.629 104.594 119.629 104.594L114.489 105.234L118.987 113.306Z" fill="#F5CAAC"/>
<path d="M113.338 106.75H127.684C128.554 106.75 129.178 105.914 128.93 105.081L119.875 74.815C119.71 74.2646 119.204 73.8899 118.629 73.8899H104.283C103.413 73.8899 102.788 74.7257 103.037 75.5586L112.092 105.822C112.257 106.372 112.763 106.747 113.338 106.747V106.75Z" fill="#A3A1FF"/>
<path d="M111.537 106.75H125.88C126.75 106.75 127.374 105.914 127.126 105.081L118.071 74.815C117.906 74.2646 117.4 73.8899 116.825 73.8899H102.482C101.612 73.8899 100.987 74.7257 101.236 75.5586L110.291 105.822C110.456 106.372 110.962 106.747 111.537 106.747V106.75Z" fill="#15133D"/>
<path d="M121.925 84.8125C123.454 90.3054 124.483 94.8157 124.223 94.8877C123.963 94.9598 122.514 90.5648 120.985 85.0718C119.456 79.5789 118.426 75.0686 118.687 74.9966C118.947 74.9246 120.395 79.3195 121.925 84.8125Z" fill="#9593F6"/>
<path d="M112.176 115.741C111.751 110.75 107.414 106.072 105.766 104.58C105.263 104.127 104.983 103.482 104.988 102.807C105.012 100.32 105.124 94.4467 105.639 93.7608C106.295 92.8876 107.94 81.6423 108.706 82.0804C109.473 82.5155 108.487 92.3429 108.487 92.3429C108.487 92.3429 110.349 91.4697 111.334 91.0345C112.32 90.5965 116.374 95.075 116.374 95.075C116.374 95.075 118.273 99.859 113.078 97.81C106.908 95.3747 111.537 102.165 115.648 106.522C119.036 110.11 116.154 110.905 116.154 110.905L113.416 110.796L112.179 115.747L112.176 115.741Z" fill="#F5CAAC"/>
<path d="M113.728 119.667C114.182 119.667 114.697 119.597 115.214 119.436C116.547 119.021 118.877 117.684 119.493 113.384C119.519 113.211 119.398 113.05 119.221 113.024C119.045 113.001 118.886 113.119 118.86 113.295C118.334 116.972 116.544 118.315 115.136 118.793C113.986 119.185 113.034 119.004 112.795 118.871C112.78 118.762 112.708 118.664 112.598 118.618C112.433 118.551 112.248 118.632 112.182 118.796C112.118 118.958 112.156 119.136 112.283 119.275C112.505 119.517 113.049 119.672 113.725 119.672L113.728 119.667Z" fill="#15133D"/>
<path d="M114.266 118.43C114.691 118.43 115.136 118.399 115.558 118.338C118.036 117.978 119.699 116.724 120.115 114.897C120.155 114.727 120.045 114.554 119.875 114.517C119.701 114.479 119.531 114.586 119.493 114.756C119.094 116.499 117.504 117.24 116.241 117.554C114.468 117.995 112.806 117.724 112.607 117.494C112.52 117.341 112.329 117.289 112.173 117.375C112.02 117.462 111.968 117.661 112.054 117.813C112.291 118.234 113.222 118.427 114.263 118.427L114.266 118.43Z" fill="#15133D"/>
<path d="M155.65 69.3538C155.806 69.3538 155.965 69.3422 156.121 69.3192C158.552 68.9474 160.024 65.8205 159.466 62.1979C159.209 60.5177 158.538 58.9932 157.584 57.9067C156.566 56.7511 155.343 56.215 154.135 56.3995C151.703 56.7712 150.232 59.8981 150.79 63.5207C151.31 66.907 153.392 69.3538 155.647 69.3538H155.65ZM154.597 57.4859C155.323 57.4859 156.072 57.8894 156.737 58.6445C157.552 59.5725 158.124 60.8924 158.353 62.3651C158.798 65.2643 157.699 67.9387 155.95 68.2067C154.204 68.4748 152.351 66.2499 151.906 63.3507C151.46 60.4515 152.559 57.777 154.308 57.509C154.404 57.4946 154.502 57.4859 154.6 57.4859H154.597Z" fill="white"/>
<path d="M147.63 69.3682C147.708 69.3682 147.783 69.3624 147.861 69.3509C149.454 69.1088 150.318 66.4171 149.827 63.2268C149.335 60.0365 147.702 57.7223 146.112 57.9701C145.291 58.094 144.646 58.8433 144.293 60.0797C143.972 61.2008 143.92 62.6273 144.146 64.0942C144.611 67.1289 146.112 69.3682 147.63 69.3682ZM146.349 58.803C147.289 58.803 148.564 60.6042 148.986 63.3564C149.425 66.2153 148.676 68.3681 147.731 68.5122C146.78 68.6506 145.427 66.8263 144.987 63.9674C144.779 62.6187 144.825 61.3218 145.112 60.3131C145.363 59.4313 145.776 58.8837 146.239 58.8116C146.274 58.8059 146.308 58.803 146.346 58.803H146.349Z" fill="white"/>
<path d="M158.312 59.803C158.364 59.803 158.416 59.7973 158.469 59.78L177.362 54.3994C177.663 54.3129 177.833 54.0017 177.749 53.7049C177.666 53.4051 177.353 53.2351 177.053 53.3187L158.159 58.6992C157.859 58.7857 157.688 59.097 157.772 59.3938C157.844 59.6416 158.07 59.8001 158.312 59.8001V59.803Z" fill="white"/>
<path d="M144.82 48.0966C174.058 65.2643 175.665 53.7337 175.665 53.7337L173.93 37.3354L156.581 38.2951L144.822 48.0966H144.82Z" fill="#15133D"/>
<path d="M173.401 57.5436C172.722 60.4457 173.65 63.1432 175.477 63.5668C177.304 63.9905 179.334 61.9846 180.016 59.0825C180.696 56.1804 179.767 53.4829 177.94 53.0564C176.113 52.6299 174.084 54.6386 173.401 57.5407V57.5436Z" fill="#F9D8C1"/>
<path d="M175.405 61.3564C175.405 61.9904 175.919 62.5034 176.555 62.5034C177.191 62.5034 177.706 61.9904 177.706 61.3564C177.706 60.7224 177.191 60.2094 176.555 60.2094C175.919 60.2094 175.405 60.7224 175.405 61.3564Z" fill="#15133D"/>
<path d="M2.20305 184H242.794C244.011 184 245 182.804 245 181.328C245 179.853 244.014 178.657 242.794 178.657H2.20305C0.985886 178.657 -0.00288391 179.853 -0.00288391 181.328C-0.00288391 182.804 0.982986 184 2.20305 184Z" fill="#15133D"/>
<path d="M172.994 178.144C172.994 178.144 184.02 178.282 184.159 179.256C184.298 180.23 183.74 180.648 179.834 181.343C175.925 182.037 131.963 182.317 131.543 182.037C131.124 181.761 118.285 178.697 118.285 178.697L149.127 178.141H172.994V178.144Z" fill="#DBE5EB"/>
<path d="M166.989 170.827C166.989 170.827 159.084 167.368 156.771 168.904C154.459 170.441 147.774 177.49 147.774 177.49L166.989 170.827Z" fill="#F5CAAC"/>
<path d="M148.211 178.118C148.361 178.305 148.584 178.383 148.711 178.291L164.974 166.221C165.85 165.57 166.266 164.576 165.844 164.051C165.422 163.527 164.358 163.714 163.528 164.423L148.147 177.593C148.029 177.694 148.055 177.931 148.205 178.118H148.211Z" fill="#15133D"/>
<path d="M190.893 169.354C190.893 169.354 177.784 174.541 176.24 174.541C174.696 174.541 166.087 168.778 163.196 169.544C160.304 170.314 146.167 177.423 146.551 178C146.936 178.576 150.986 179.922 162.938 179.536C174.89 179.153 194.362 177.423 194.362 177.423L190.893 169.351V169.354Z" fill="#F5CAAC"/>
<path d="M27.061 167.61H80.4919C82.4839 167.61 84.1 169.221 84.1 171.207V175.285C84.1 177.271 82.4839 178.882 80.4919 178.882H27.061C26.2688 178.882 25.6241 178.239 25.6241 177.449V169.046C25.6241 168.256 26.2688 167.613 27.061 167.613V167.61Z" fill="#15133D"/>
<path d="M74.5333 172.149H23.8027C23.4471 172.737 23.2389 173.423 23.2389 174.155V177.599C23.2389 178.331 23.4471 179.017 23.8027 179.605H74.5333C76.3345 179.605 77.809 178.135 77.809 176.34V175.415C77.809 173.619 76.3345 172.149 74.5333 172.149Z" fill="#F2E5DE"/>
<path d="M38.0704 160.795H78.7023C80.0467 160.795 81.1366 161.881 81.1366 163.221V165.184C81.1366 166.524 80.0467 167.61 78.7023 167.61H38.0704C37.5355 167.61 37.099 167.178 37.099 166.642V161.76C37.099 161.227 37.5326 160.792 38.0704 160.792V160.795Z" fill="#15133D"/>
<path d="M75.3081 161.947H37.1048C36.8359 162.302 36.6798 162.717 36.6798 163.161V165.244C36.6798 165.688 36.8359 166.103 37.1048 166.458H75.3081C76.6641 166.458 77.7743 165.57 77.7743 164.484V163.924C77.7743 162.838 76.6641 161.95 75.3081 161.95V161.947Z" fill="#F2E5DE"/>
<path d="M46.3188 69.6304H48.4669C48.9208 69.6304 49.155 69.2644 48.9902 68.812L48.3455 67.0482C48.1807 66.5957 47.6805 66.2297 47.2266 66.2297H45.0785C44.6246 66.2297 44.3904 66.5957 44.5552 67.0482L45.1999 68.812C45.3647 69.2644 45.8649 69.6304 46.3188 69.6304Z" fill="#15133D"/>
<path d="M39.4292 69.6304H41.5773C42.0312 69.6304 42.2654 69.2644 42.1006 68.812L41.4559 67.0482C41.2911 66.5957 40.788 66.2297 40.337 66.2297H38.1889C37.735 66.2297 37.5008 66.5957 37.6656 67.0482L38.3103 68.812C38.4751 69.2644 38.9782 69.6304 39.4292 69.6304Z" fill="#15133D"/>
<path d="M32.5367 69.6304H34.6849C35.1388 69.6304 35.3729 69.2644 35.2081 68.812L34.5634 67.0482C34.3986 66.5957 33.8985 66.2297 33.4446 66.2297H31.2965C30.8425 66.2297 30.6084 66.5957 30.7732 67.0482L31.4179 68.812C31.5827 69.2644 32.0828 69.6304 32.5367 69.6304Z" fill="#15133D"/>
<path d="M73.6226 56.0651H116.958C118.34 56.0651 119.06 54.9383 118.557 53.5607L112.002 35.6149C111.499 34.2374 109.958 33.1105 108.576 33.1105H65.2412C63.8593 33.1105 63.1394 34.2374 63.6424 35.6149L70.1937 53.5607C70.6968 54.9383 72.2377 56.0651 73.6197 56.0651H73.6226Z" fill="#15133D"/>
<path d="M75.0942 54.1861H114.119C115.316 54.1861 115.937 53.2092 115.503 52.016L110.077 37.1539C109.64 35.9608 108.305 34.9838 107.108 34.9838H68.0832C66.8863 34.9838 66.2647 35.9608 66.6984 37.1539L72.125 52.016C72.5616 53.2092 73.8973 54.1861 75.0942 54.1861Z" fill="white"/>
<path d="M114.763 55.0219C118.077 64.4833 114.68 67.4027 114.68 67.4027C114.68 67.4027 114.653 61.976 112.153 59.3333C109.652 56.6905 106.735 55.5781 106.735 55.5781L114.766 55.0219H114.763Z" fill="#15133D"/>
<path d="M85.6844 41.5287H106.911C107.29 41.5287 107.489 41.2174 107.351 40.8399L107.296 40.6871C107.157 40.3096 106.732 39.9984 106.353 39.9984H85.1264C84.7477 39.9984 84.5482 40.3096 84.6869 40.6871L84.7419 40.8399C84.8806 41.2174 85.3056 41.5287 85.6844 41.5287Z" fill="#15133D"/>
<path d="M86.8524 44.7276H108.079C108.458 44.7276 108.657 44.4164 108.519 44.0388L108.464 43.8861C108.325 43.5085 107.9 43.1973 107.521 43.1973H86.2944C85.9157 43.1973 85.7162 43.5085 85.8549 43.8861L85.9099 44.0388C86.0486 44.4164 86.4736 44.7276 86.8524 44.7276Z" fill="#15133D"/>
<path d="M88.1736 48.3445H109.4C109.779 48.3445 109.979 48.0332 109.84 47.6557L109.785 47.5029C109.646 47.1254 109.221 46.8141 108.842 46.8141H87.6157C87.2369 46.8141 87.0374 47.1254 87.1762 47.5029L87.2311 47.6557C87.3699 48.0332 87.7949 48.3445 88.1736 48.3445Z" fill="#15133D"/>
<path d="M34.15 76.377H75.976C76.7248 76.377 77.1151 76.0658 76.8433 75.6882L76.7334 75.5355C76.4617 75.1551 75.6262 74.8467 74.8774 74.8467H33.0514C32.3026 74.8467 31.9123 75.1551 32.1869 75.5355L32.2968 75.6882C32.5686 76.0658 33.4041 76.377 34.1529 76.377H34.15Z" fill="#15133D"/>
<path d="M36.4513 81.6625H78.2773C79.0261 81.6625 79.4164 81.3512 79.1418 80.9737L79.0319 80.821C78.7601 80.4434 77.9246 80.1322 77.1758 80.1322H35.3498C34.601 80.1322 34.2107 80.4434 34.4854 80.821L34.5952 80.9737C34.867 81.3512 35.7025 81.6625 36.4513 81.6625Z" fill="#15133D"/>
<path d="M78.3091 49.5952H81.3795C82.7614 49.5952 83.4813 48.4684 82.9783 47.0908L80.6914 40.8312C80.1883 39.4537 78.6474 38.3268 77.2654 38.3268H74.195C72.8131 38.3268 72.0932 39.4537 72.5962 40.8312L74.8831 47.0908C75.3862 48.4684 76.9271 49.5952 78.3091 49.5952Z" fill="#15133D"/>
</g>
<defs>
<clipPath id="clip0_24_118">
<rect width="245" height="184" fill="white" transform="matrix(-1 0 0 1 245 0)"/>
</clipPath>
</defs>
</svg>
